PathFileType	4	(X/Y/Z)	./resultDataOpenSim/trcMotMarkerGrf/sub06/qtm-03-04.trc
DataRate	CameraRate	NumFrames	NumMarkers	Units	OrigDataRate	OrigDataStartFrame	OrigNumFrames
250.000000	250.000000	9	24	m	250.000000	307	490
Frame#	Time	L.Toe.Tip			R.Toe.Tip			L.Ankle.Lat			R.Ankle.Lat			L.Ankle.Med			R.Ankle.Med			L.Heel			R.Heel			L.Knee.Lat			R.Knee.Lat			L.Knee.Med			R.Knee.Med			L.Thigh.Upper			R.Thigh.Upper			L.ASIS			R.ASIS			V.Sacral			L.Acromium			R.Acromium			C7			L.Elbow			R.Elbow			L.Wrist.Lat			R.Wrist.Lat
		X1	Y1	Z1	X2	Y2	Z2	X3	Y3	Z3	X4	Y4	Z4	X5	Y5	Z5	X6	Y6	Z6	X7	Y7	Z7	X8	Y8	Z8	X9	Y9	Z9	X10	Y10	Z10	X11	Y11	Z11	X12	Y12	Z12	X13	Y13	Z13	X14	Y14	Z14	X15	Y15	Z15	X16	Y16	Z16	X17	Y17	Z17	X18	Y18	Z18	X19	Y19	Z19	X20	Y20	Z20	X21	Y21	Z21	X22	Y22	Z22	X23	Y23	Z23	X24	Y24	Z24

307	1.224	0.32874952	0.097840223	-0.047032793	0.92380662	0.036071447	0.13274318	0.34643712	0.22517506	-0.078779889	0.78792468	0.059716382	0.16130558	0.36482105	0.23003132	0.0036362315	0.80439635	0.081047255	0.074079875	0.30545426	0.28764541	-0.032340966	0.7310418	0.038021051	0.10494643	0.69601498	0.36427585	-0.098111298	0.85326308	0.44216657	0.18902462	0.69780889	0.35257566	0.022019577	0.81685538	0.428698	0.06752362	0.64812686	0.75642259	-0.093962022	0.69099248	0.78954785	0.25050665	0.73200756	0.80827878	-0.064847204	0.77611757	0.8317828	0.17642726	0.57011094	0.89958911	0.085285312	0.70555537	1.311666	-0.10143256	0.72307701	1.2777953	0.26043842	0.63485343	1.3361526	0.085091842	0.6943977	0.98981691	-0.1803452	0.63157674	0.97385169	0.31304669	0.89444466	0.84314176	-0.16548187	0.75887451	0.77354108	0.37243816
308	1.228	0.34304637	0.10085048	-0.046682474	0.92371289	0.036098391	0.13287305	0.35984793	0.22826133	-0.07822338	0.78777694	0.059728276	0.16147194	0.37834331	0.23309366	0.0041145891	0.80435438	0.081257547	0.074310472	0.31843948	0.29043026	-0.031754596	0.73097124	0.038113915	0.10505783	0.70905474	0.36735639	-0.097821591	0.85462714	0.44211603	0.18957271	0.71113214	0.35547172	0.022435553	0.81880674	0.42935452	0.067847923	0.65436036	0.75914331	-0.093323034	0.69585107	0.79099652	0.25092806	0.73813448	0.81079436	-0.064683762	0.78170132	0.83379121	0.17729547	0.57645472	0.90185452	0.085546531	0.71086534	1.314225	-0.10123	0.72930014	1.2804826	0.26058755	0.6408964	1.3385097	0.085384662	0.6984218	0.99248925	-0.17953074	0.63959961	0.97576155	0.31358089	0.89684481	0.84371212	-0.16573167	0.77013908	0.77710984	0.37168156
309	1.232	0.35752089	0.10363401	-0.046351278	0.9236354	0.036124186	0.13298934	0.37329639	0.23115231	-0.077644201	0.78765519	0.059752611	0.16164936	0.39192185	0.23596167	0.0045997123	0.80433276	0.081467174	0.074532795	0.33138908	0.29296058	-0.031093299	0.73090919	0.038211183	0.10517449	0.72203177	0.37056587	-0.097494257	0.85592652	0.44208691	0.19008979	0.72415936	0.35851521	0.02300821	0.82055108	0.42997901	0.068168101	0.66070781	0.76189802	-0.092695711	0.70079744	0.79244353	0.25131791	0.74427027	0.81331653	-0.064580519	0.78727243	0.83588726	0.17812805	0.58270061	0.90410617	0.085801384	0.71619106	1.3167879	-0.10102893	0.73551867	1.2831968	0.2607294	0.64700844	1.3407881	0.085595058	0.70237567	0.99519303	-0.17875274	0.64755426	0.97772554	0.31410093	0.8991781	0.84435119	-0.16599809	0.78137842	0.7807843	0.37086485
310	1.236	0.37216361	0.10619511	-0.046045043	0.92356639	0.036149368	0.13308759	0.38677108	0.23384191	-0.077034701	0.78753275	0.059779781	0.16183858	0.40554931	0.23861853	0.0050753504	0.80432203	0.081669583	0.074742237	0.34430528	0.29523846	-0.030341357	0.73085116	0.038310976	0.10529677	0.73490799	0.37389397	-0.097099143	0.85715987	0.44210562	0.1905526	0.73698662	0.3617109	0.023671907	0.82202267	0.43056342	0.068520064	0.66723629	0.76472041	-0.092251787	0.70585579	0.79388337	0.25166901	0.75040417	0.81586814	-0.0644936	0.79283815	0.83806184	0.17892235	0.58881823	0.90635896	0.086047089	0.72155636	1.3193533	-0.10083676	0.74173124	1.2859318	0.26085707	0.65316556	1.3430017	0.085746116	0.70626212	0.99792168	-0.17801328	0.65543818	0.97974304	0.3146065	0.90145381	0.84505221	-0.16627904	0.79258018	0.78455824	0.3699815
311	1.24	0.38696305	0.10853843	-0.045777223	0.92349563	0.036175878	0.1331632	0.40026782	0.23633002	-0.076403851	0.78737025	0.059814483	0.16204308	0.41920788	0.24105633	0.0055623455	0.80431039	0.081857239	0.07492609	0.35719414	0.2972639	-0.029508037	0.73078498	0.038415554	0.10543628	0.74768395	0.37733464	-0.096642454	0.85830428	0.44219216	0.19092998	0.74957708	0.36507745	0.024426776	0.82325694	0.43110508	0.068887563	0.67395966	0.76759039	-0.092049575	0.7110294	0.79531331	0.25197775	0.75663548	0.81848752	-0.064311448	0.79840683	0.84029765	0.17967912	0.5948229	0.90860895	0.086278781	0.72696354	1.3219173	-0.10064528	0.74793706	1.2886768	0.26096832	0.65927794	1.3452175	0.085915386	0.71008087	1.0006704	-0.17731078	0.66326646	0.98181191	0.31510464	0.90367485	0.84579467	-0.16657755	0.8037437	0.78843162	0.36903356
312	1.244	0.40191151	0.11066601	-0.045559247	0.92341674	0.036204771	0.13321346	0.41379367	0.23862847	-0.075780871	0.78716811	0.059864202	0.16225123	0.43286609	0.2432815	0.0061070185	0.80428392	0.082032686	0.075082318	0.37005615	0.29903415	-0.028617106	0.73069672	0.03853037	0.10560767	0.76038853	0.38088298	-0.096157931	0.8593642	0.44234586	0.19121611	0.76196065	0.36860708	0.025253312	0.82432381	0.43160158	0.06922576	0.68082571	0.77044046	-0.092017041	0.71631444	0.79673212	0.25224223	0.76317666	0.82120628	-0.063961428	0.80399074	0.84257295	0.18040283	0.6007566	0.91084091	0.086494518	0.73239239	1.3244703	-0.10043161	0.75413879	1.29142	0.26106777	0.66527572	1.3474863	0.086160979	0.71383187	1.0034291	-0.17663798	0.67106226	0.983925	0.31560857	0.90583978	0.84655745	-0.16689847	0.81487068	0.79240272	0.3680278
313	1.248	0.41701025	0.11257708	-0.045389384	0.9233294	0.036235679	0.13323927	0.42736022	0.24075419	-0.07520185	0.78697734	0.059925897	0.16243449	0.44649228	0.24530501	0.006733404	0.80422798	0.082210077	0.075226691	0.38288542	0.30054305	-0.027697187	0.73058551	0.038658403	0.10580481	0.77303474	0.38452621	-0.095666577	0.86037675	0.44254232	0.19142077	0.7742987	0.37225434	0.026080384	0.82531632	0.43203935	0.069471744	0.68774762	0.77322408	-0.092036565	0.72170765	0.79813884	0.25246077	0.77010256	0.82401212	-0.063444563	0.80959917	0.84486641	0.18109813	0.60665809	0.91304056	0.086695175	0.73782905	1.3269962	-0.10017966	0.76033932	1.2941544	0.26116206	0.67116519	1.3497966	0.086476645	0.71751948	1.0061831	-0.17598459	0.6788352	0.98606842	0.3161288	0.90794941	0.84733352	-0.16724093	0.82595633	0.79646088	0.36697251
314	1.252	0.4322665	0.11427121	-0.045253793	0.92323654	0.036267469	0.13324396	0.44097007	0.24269884	-0.074677656	0.78683882	0.059989473	0.1625739	0.46006847	0.2471323	0.0074251686	0.80413531	0.082402265	0.075373677	0.39567768	0.30177929	-0.026770435	0.73046468	0.038795492	0.10599844	0.78561366	0.38824603	-0.095168527	0.86137621	0.44275234	0.19155899	0.78672786	0.37597213	0.026854963	0.82632463	0.43239495	0.069582867	0.6946831	0.77594304	-0.092050821	0.72720795	0.79953236	0.25263142	0.77719782	0.82684391	-0.06277644	0.81523361	0.84716144	0.18176769	0.61255401	0.91519813	0.086879505	0.74327827	1.3294754	-0.099892038	0.76653746	1.2968758	0.26125591	0.67699333	1.3521077	0.086824183	0.72115394	1.008921	-0.17534528	0.68657518	0.98822429	0.31666749	0.91001013	0.84812299	-0.16759819	0.83698827	0.80058631	0.36587588
315	1.256	0.44768479	0.11575276	-0.045134162	0.9231425	0.036298264	0.13323103	0.4546116	0.24441011	-0.074173295	0.78674412	0.060047268	0.16267361	0.47360735	0.24876369	0.0081460473	0.80401137	0.082609886	0.075519668	0.4084365	0.30273086	-0.025844272	0.73034331	0.03893236	0.10616918	0.79811105	0.39202673	-0.094657634	0.86236704	0.4429577	0.19164481	0.79922703	0.37974545	0.027591117	0.82737942	0.43265643	0.069573349	0.70167057	0.77861905	-0.092090633	0.73281562	0.80091137	0.25275193	0.78417088	0.8296408	-0.061964175	0.82089166	0.84944514	0.18241252	0.61846508	0.9173058	0.087040048	0.74874572	1.3318926	-0.099580084	0.77272834	1.2995786	0.26135082	0.68279687	1.3543911	0.087173335	0.72474971	1.011639	-0.17472337	0.69426403	0.99037754	0.31722075	0.91203137	0.84892646	-0.16796534	0.84795345	0.80475791	0.36474106
